<?xml version="1.0" standalone="no"?>
<!DOCTYPE svg PUBLIC "-//W3C//DTD SVG 20010904//EN"
 "http://www.w3.org/TR/2001/REC-SVG-20010904/DTD/svg10.dtd">
<svg version="1.0" xmlns="http://www.w3.org/2000/svg"
 width="1024.000000pt" height="1024.000000pt" viewBox="0 0 1024.000000 1024.000000"
 preserveAspectRatio="xMidYMid meet">
<metadata>
Created by potrace 1.14, written by Peter Selinger 2001-2017
</metadata>
<g transform="translate(0.000000,1024.000000) scale(0.100000,-0.100000)"
fill="#000000" stroke="none">
<path d="M0 5120 l0 -5120 5120 0 5120 0 0 5120 0 5120 -5120 0 -5120 0 0
-5120z m1985 4367 c357 -100 625 -369 712 -714 13 -50 17 -108 17 -218 -1
-134 -4 -160 -28 -239 -170 -561 -765 -851 -1325 -647 -263 96 -475 299 -574
551 -52 132 -61 185 -61 345 -1 168 15 244 78 380 120 259 357 460 632 536
125 34 161 38 314 34 116 -3 163 -8 235 -28z m1501 8 c23 -14 53 -42 66 -62
l23 -38 5 -1205 5 -1205 1505 0 1505 0 5 1206 5 1205 28 42 c72 110 242 110
314 0 l28 -42 3 -1208 2 -1208 1193 -2 1194 -3 37 -29 c118 -90 92 -273 -46
-331 -33 -13 -174 -15 -1208 -15 l-1170 0 0 -1505 0 -1505 1198 -2 1197 -3 42
-24 c24 -14 55 -42 70 -64 23 -34 28 -51 28 -103 0 -53 -4 -69 -30 -105 -16
-23 -48 -52 -70 -63 -40 -21 -45 -21 -1237 -24 l-1198 -2 -2 -1178 -3 -1178
-24 -35 c-41 -60 -86 -83 -162 -84 -56 0 -71 4 -102 27 -19 16 -46 43 -59 60
l-23 33 -3 1177 -2 1178 -1510 0 -1510 0 -2 -1177 -3 -1178 -23 -33 c-74 -103
-192 -122 -281 -46 -76 66 -71 -27 -71 1270 l0 1164 -1148 0 c-995 0 -1155 2
-1199 15 -159 47 -178 269 -30 347 l42 23 1168 3 1167 2 0 1505 0 1505 -1152
0 c-774 0 -1165 4 -1191 11 -120 33 -173 183 -103 289 53 81 -53 74 1266 80
l1175 5 5 1206 5 1205 27 42 c55 82 168 107 254 57z m1901 -9 c317 -90 560
-306 673 -598 154 -398 -3 -870 -369 -1113 -407 -269 -951 -216 -1291 125
-117 117 -196 249 -246 416 -25 81 -27 104 -27 244 0 175 15 250 77 384 97
210 279 391 489 485 64 29 216 74 282 85 17 2 95 3 175 1 119 -3 161 -8 237
-29z m2561 -157 c43 -11 69 -34 289 -252 l243 -241 232 231 c252 249 267 259
359 251 125 -12 204 -145 155 -259 -9 -20 -111 -130 -240 -259 -124 -124 -226
-229 -226 -235 0 -6 102 -111 226 -235 124 -124 235 -243 246 -265 59 -111
-16 -255 -141 -272 -94 -13 -96 -11 -364 255 l-247 246 -238 -236 c-205 -204
-243 -238 -280 -248 -144 -38 -278 109 -227 248 14 38 60 90 246 277 l229 230
-231 230 c-127 127 -239 247 -250 267 -22 44 -25 115 -5 161 18 43 65 85 112
102 48 17 54 18 112 4z m747 -3273 c101 -22 176 -50 274 -102 194 -103 336
-253 427 -449 63 -137 79 -212 79 -385 0 -131 -4 -167 -23 -234 -108 -377
-410 -643 -806 -711 -366 -63 -759 91 -974 383 -254 344 -254 780 0 1124 140
190 378 337 613 377 33 6 71 13 85 15 48 9 256 -3 325 -18z m-3322 -3450 c187
-48 340 -136 477 -276 369 -376 357 -966 -27 -1330 -128 -123 -259 -195 -441
-247 -88 -25 -112 -28 -262 -28 -150 0 -174 3 -262 28 -178 50 -309 122 -433
238 -184 172 -287 390 -302 635 -29 496 343 931 859 1004 103 15 282 3 391
-24z m-4166 -166 c15 -6 137 -120 270 -253 l243 -242 237 237 c196 195 245
238 278 247 49 13 61 14 107 1 106 -30 166 -154 122 -258 -10 -24 -97 -119
-244 -267 l-230 -230 236 -235 c129 -129 242 -247 250 -262 17 -32 19 -115 3
-155 -31 -82 -135 -134 -225 -112 -45 11 -69 32 -292 253 l-242 240 -228 -226
c-125 -124 -241 -233 -259 -242 -69 -35 -185 -9 -229 51 -44 59 -55 137 -30
196 8 18 118 135 245 262 l231 230 -234 235 c-129 129 -241 250 -251 269 -27
54 -17 150 21 197 16 20 45 45 64 55 38 21 113 25 157 9z"/>
<path d="M1595 9126 c-253 -59 -427 -223 -481 -454 -54 -226 74 -490 293 -605
251 -132 567 -91 759 98 228 225 228 566 1 790 -79 77 -154 121 -262 155 -89
27 -229 35 -310 16z"/>
<path d="M3580 5095 l0 -1505 1510 0 1510 0 0 1505 0 1505 -1510 0 -1510 0 0
-1505z m1040 779 c14 -7 130 -116 257 -243 128 -127 237 -231 243 -231 6 0
115 104 243 230 238 237 256 250 332 250 39 0 104 -31 132 -61 28 -30 53 -90
53 -125 0 -75 -17 -98 -252 -334 -125 -126 -228 -234 -228 -240 0 -6 104 -115
231 -243 127 -127 237 -246 245 -264 27 -62 11 -156 -34 -207 -44 -49 -149
-70 -215 -42 -18 7 -137 117 -264 245 -128 127 -237 231 -243 231 -6 0 -115
-104 -242 -230 -250 -249 -264 -259 -351 -246 -85 13 -150 78 -163 163 -13 86
-3 100 246 350 126 128 230 237 230 243 0 6 -104 115 -231 243 -127 127 -237
243 -244 257 -37 74 -19 166 45 224 22 19 52 38 67 42 16 3 33 7 38 9 18 4 79
-7 105 -21z"/>
<path d="M4995 9126 c-176 -41 -307 -125 -394 -256 -154 -229 -125 -507 73
-705 234 -233 658 -233 892 0 230 231 227 575 -8 802 -136 131 -382 201 -563
159z"/>
<path d="M8395 5690 c-307 -43 -530 -282 -530 -570 0 -398 424 -674 827 -540
145 49 272 156 341 287 116 222 76 466 -107 648 -136 135 -339 202 -531 175z"/>
<path d="M4940 2227 c-107 -32 -195 -83 -266 -152 -99 -98 -159 -224 -170
-359 -8 -93 8 -171 57 -273 71 -149 190 -250 364 -309 69 -23 96 -27 195 -27
99 0 126 4 195 27 174 59 293 160 364 309 49 102 65 180 57 273 -20 244 -193
443 -446 513 -104 29 -248 28 -350 -2z"/>
</g>
</svg>
